<svg width="1000" height="317" viewBox="0 0 1000 317" fill="none" xmlns="http://www.w3.org/2000/svg">
<path d="M28.0253 47.588C37.1824 46.5248 42.1203 57.936 33.5913 63.1223C34.5455 66.2923 35.6864 69.1897 37.4166 72.063C43.2159 81.6939 55.0336 90.2729 67.1152 83.6835C75.2742 79.2335 80.2058 71.5435 82.6494 63.2554C81.2665 62.2049 80.5323 61.8358 79.547 60.3802C78.2465 58.4174 77.8503 56.0561 78.4464 53.8221C78.9957 51.6958 80.4883 49.7761 82.5302 48.7057C89.7805 44.9122 97.8279 50.9012 95.6649 58.2759C94.9388 60.7501 93.4441 62.1181 91.1009 63.3587C91.5073 64.4796 91.838 65.6502 92.2453 66.7894C93.144 69.4485 94.3598 71.7718 95.8214 74.1877C101.685 83.882 113.645 91.4823 125.448 84.8387C133.761 80.1588 138.51 71.8721 140.847 63.3431C139.562 62.4051 138.464 61.6738 137.574 60.381C136.102 58.2433 135.946 56.02 136.509 53.6053C136.741 53.0578 136.95 52.5173 137.241 51.9921C139.261 48.3452 144.031 46.6424 148.217 48.006C150.396 48.7264 152.173 50.2186 153.156 52.1522C154.21 54.2317 154.336 56.61 153.508 58.7746C152.451 61.4565 150.645 62.6632 148.003 63.8017L142.84 97.6629C142.069 102.766 141.165 108.089 140.512 113.183L75.0779 113.169L49.1027 113.167C44.0975 113.166 38.8776 113.09 33.8923 113.218C33.6143 112.227 33.3371 109.792 33.1769 108.691L32.0137 101.215L28.2849 77.1475L26.9781 68.5525C26.7334 66.9776 26.5247 65.3262 26.187 63.7739C25.3195 63.441 24.6394 63.1673 23.8602 62.6623C19.7784 60.017 18.8462 54.7291 21.7523 50.997C23.3506 48.9445 25.3422 47.9649 28.0253 47.588Z" fill="#0908A1"/>
<path d="M451.029 262.949C456.155 263.509 460.256 264.417 463.332 265.676C466.454 266.934 468.715 268.588 470.113 270.639C471.511 272.689 472.21 275.252 472.21 278.328C472.21 281.683 471.115 284.619 468.924 287.136C466.781 289.606 463.798 291.516 459.977 292.868C456.155 294.173 451.798 294.825 446.905 294.825C441.452 294.825 436.839 294.149 433.064 292.798C429.289 291.447 426.47 289.652 424.606 287.416C422.742 285.132 421.81 282.639 421.81 279.936C421.81 279.47 421.949 279.097 422.229 278.817C422.555 278.538 422.951 278.398 423.417 278.398H437.748C438.726 278.398 439.518 278.701 440.124 279.307C440.916 280.052 441.802 280.565 442.781 280.845C443.759 281.078 445.134 281.194 446.905 281.194C451.332 281.194 453.546 280.518 453.546 279.167C453.546 278.608 453.243 278.142 452.637 277.769C452.078 277.349 451.052 277 449.561 276.72C448.116 276.394 445.973 276.068 443.13 275.742C436.746 274.996 431.852 273.412 428.45 270.988C425.049 268.518 423.348 265.047 423.348 260.573C423.348 257.404 424.303 254.608 426.214 252.184C428.124 249.761 430.827 247.874 434.322 246.522C437.864 245.171 441.965 244.495 446.625 244.495C451.472 244.495 455.713 245.264 459.348 246.802C462.983 248.293 465.755 250.157 467.666 252.394C469.577 254.631 470.532 256.821 470.532 258.965C470.532 259.431 470.369 259.804 470.043 260.083C469.763 260.363 469.367 260.503 468.854 260.503H453.825C453.033 260.503 452.311 260.223 451.658 259.664C451.146 259.198 450.54 258.825 449.841 258.546C449.142 258.266 448.07 258.126 446.625 258.126C443.503 258.126 441.942 258.779 441.942 260.083C441.942 260.783 442.548 261.342 443.759 261.761C444.971 262.134 447.394 262.53 451.029 262.949ZM548.936 245.194C549.355 245.194 549.705 245.357 549.984 245.683C550.311 245.963 550.474 246.289 550.474 246.662C550.474 246.942 550.404 247.221 550.264 247.501L532.648 276.65V292.239C532.648 292.751 532.462 293.194 532.089 293.567C531.716 293.94 531.274 294.126 530.761 294.126H515.872C515.359 294.126 514.916 293.94 514.544 293.567C514.171 293.194 513.984 292.751 513.984 292.239V276.65L496.439 247.501C496.299 247.221 496.229 246.965 496.229 246.732C496.229 246.313 496.369 245.963 496.648 245.683C496.975 245.357 497.347 245.194 497.767 245.194H512.516C513.821 245.194 514.777 245.73 515.382 246.802L523.281 260.643L531.39 246.942C532.089 245.777 533.068 245.194 534.326 245.194H548.936ZM603.363 262.949C608.489 263.509 612.59 264.417 615.666 265.676C618.788 266.934 621.048 268.588 622.446 270.639C623.844 272.689 624.543 275.252 624.543 278.328C624.543 281.683 623.448 284.619 621.258 287.136C619.114 289.606 616.132 291.516 612.31 292.868C608.489 294.173 604.132 294.825 599.239 294.825C593.786 294.825 589.173 294.149 585.398 292.798C581.623 291.447 578.804 289.652 576.94 287.416C575.075 285.132 574.143 282.639 574.143 279.936C574.143 279.47 574.283 279.097 574.563 278.817C574.889 278.538 575.285 278.398 575.751 278.398H590.081C591.06 278.398 591.852 278.701 592.458 279.307C593.25 280.052 594.136 280.565 595.114 280.845C596.093 281.078 597.468 281.194 599.239 281.194C603.666 281.194 605.879 280.518 605.879 279.167C605.879 278.608 605.576 278.142 604.971 277.769C604.411 277.349 603.386 277 601.895 276.72C600.45 276.394 598.307 276.068 595.464 275.742C589.079 274.996 584.186 273.412 580.784 270.988C577.382 268.518 575.681 265.047 575.681 260.573C575.681 257.404 576.637 254.608 578.547 252.184C580.458 249.761 583.161 247.874 586.656 246.522C590.198 245.171 594.299 244.495 598.959 244.495C603.806 244.495 608.046 245.264 611.681 246.802C615.316 248.293 618.089 250.157 620 252.394C621.91 254.631 622.866 256.821 622.866 258.965C622.866 259.431 622.703 259.804 622.376 260.083C622.097 260.363 621.701 260.503 621.188 260.503H606.159C605.367 260.503 604.644 260.223 603.992 259.664C603.479 259.198 602.874 258.825 602.174 258.546C601.475 258.266 600.404 258.126 598.959 258.126C595.837 258.126 594.275 258.779 594.275 260.083C594.275 260.783 594.881 261.342 596.093 261.761C597.305 262.134 599.728 262.53 603.363 262.949ZM699.802 245.194C700.314 245.194 700.757 245.381 701.13 245.753C701.503 246.126 701.689 246.569 701.689 247.082V258.336C701.689 258.849 701.503 259.291 701.13 259.664C700.757 260.037 700.314 260.223 699.802 260.223H684.772V292.239C684.772 292.751 684.586 293.194 684.213 293.567C683.84 293.94 683.398 294.126 682.885 294.126H668.485C667.972 294.126 667.53 293.94 667.157 293.567C666.784 293.194 666.598 292.751 666.598 292.239V260.223H651.569C651.056 260.223 650.613 260.037 650.24 259.664C649.868 259.291 649.681 258.849 649.681 258.336V247.082C649.681 246.569 649.868 246.126 650.24 245.753C650.613 245.381 651.056 245.194 651.569 245.194H699.802ZM774.5 280.495C775.013 280.495 775.456 280.682 775.829 281.054C776.201 281.427 776.388 281.87 776.388 282.383V292.239C776.388 292.751 776.201 293.194 775.829 293.567C775.456 293.94 775.013 294.126 774.5 294.126H730.322C729.809 294.126 729.366 293.94 728.994 293.567C728.621 293.194 728.434 292.751 728.434 292.239V247.082C728.434 246.569 728.621 246.126 728.994 245.753C729.366 245.381 729.809 245.194 730.322 245.194H773.801C774.314 245.194 774.757 245.381 775.13 245.753C775.502 246.126 775.689 246.569 775.689 247.082V256.938C775.689 257.45 775.502 257.893 775.13 258.266C774.757 258.639 774.314 258.825 773.801 258.825H746.609V263.229H769.957C770.469 263.229 770.912 263.416 771.285 263.788C771.658 264.161 771.844 264.604 771.844 265.116V274.204C771.844 274.716 771.658 275.159 771.285 275.532C770.912 275.905 770.469 276.091 769.957 276.091H746.609V280.495H774.5ZM837.176 247.082C837.875 245.823 838.877 245.194 840.182 245.194H852.974C853.487 245.194 853.929 245.381 854.302 245.753C854.675 246.126 854.861 246.569 854.861 247.082V292.239C854.861 292.751 854.675 293.194 854.302 293.567C853.929 293.94 853.487 294.126 852.974 294.126H840.322C839.809 294.126 839.366 293.94 838.994 293.567C838.621 293.194 838.434 292.751 838.434 292.239V270.569L833.331 280.635C833.192 280.961 832.865 281.334 832.353 281.753C831.84 282.173 831.188 282.383 830.395 282.383H825.642C824.85 282.383 824.197 282.173 823.685 281.753C823.172 281.334 822.846 280.961 822.706 280.635L817.603 270.569V292.239C817.603 292.751 817.417 293.194 817.044 293.567C816.671 293.94 816.228 294.126 815.716 294.126H803.063C802.551 294.126 802.108 293.94 801.735 293.567C801.362 293.194 801.176 292.751 801.176 292.239V247.082C801.176 246.569 801.362 246.126 801.735 245.753C802.108 245.381 802.551 245.194 803.063 245.194H815.856C817.161 245.194 818.162 245.823 818.861 247.082L828.019 263.858L837.176 247.082ZM908.03 262.949C913.157 263.509 917.257 264.417 920.333 265.676C923.456 266.934 925.716 268.588 927.114 270.639C928.512 272.689 929.211 275.252 929.211 278.328C929.211 281.683 928.116 284.619 925.925 287.136C923.782 289.606 920.799 291.516 916.978 292.868C913.157 294.173 908.799 294.825 903.906 294.825C898.454 294.825 893.84 294.149 890.065 292.798C886.29 291.447 883.471 289.652 881.607 287.416C879.743 285.132 878.811 282.639 878.811 279.936C878.811 279.47 878.951 279.097 879.23 278.817C879.557 278.538 879.953 278.398 880.419 278.398H894.749C895.727 278.398 896.52 278.701 897.125 279.307C897.918 280.052 898.803 280.565 899.782 280.845C900.76 281.078 902.135 281.194 903.906 281.194C908.333 281.194 910.547 280.518 910.547 279.167C910.547 278.608 910.244 278.142 909.638 277.769C909.079 277.349 908.054 277 906.562 276.72C905.118 276.394 902.974 276.068 900.131 275.742C893.747 274.996 888.854 273.412 885.452 270.988C882.05 268.518 880.349 265.047 880.349 260.573C880.349 257.404 881.304 254.608 883.215 252.184C885.125 249.761 887.828 247.874 891.323 246.522C894.865 245.171 898.966 244.495 903.626 244.495C908.473 244.495 912.714 245.264 916.349 246.802C919.984 248.293 922.757 250.157 924.667 252.394C926.578 254.631 927.533 256.821 927.533 258.965C927.533 259.431 927.37 259.804 927.044 260.083C926.764 260.363 926.368 260.503 925.856 260.503H910.826C910.034 260.503 909.312 260.223 908.659 259.664C908.147 259.198 907.541 258.825 906.842 258.546C906.143 258.266 905.071 258.126 903.626 258.126C900.504 258.126 898.943 258.779 898.943 260.083C898.943 260.783 899.549 261.342 900.76 261.761C901.972 262.134 904.395 262.53 908.03 262.949Z" fill="#0F06AD"/>
<path d="M33.4268 241.807V120.489H66.3626V169.537H68.0213L104.511 120.489H142.897L101.905 174.513L143.845 241.807H104.511L77.2623 196.312L66.3626 210.529V241.807H33.4268ZM158.847 241.807V150.818H191.545V241.807H158.847ZM175.196 141.34C170.773 141.34 166.982 139.879 163.822 136.957C160.663 134.035 159.084 130.52 159.084 126.413C159.084 122.306 160.663 118.791 163.822 115.868C166.982 112.946 170.773 111.485 175.196 111.485C179.659 111.485 183.45 112.946 186.57 115.868C189.729 118.791 191.309 122.306 191.309 126.413C191.309 130.52 189.729 134.035 186.57 136.957C183.45 139.879 179.659 141.34 175.196 141.34ZM240.905 190.626V241.807H208.206V150.818H239.246V168.116H240.194C242.169 162.35 245.644 157.828 250.62 154.55C255.635 151.273 261.48 149.634 268.154 149.634C274.591 149.634 280.179 151.115 284.918 154.076C289.696 156.999 293.389 161.027 295.995 166.161C298.641 171.295 299.944 177.159 299.905 183.754V241.807H267.206V190.626C267.246 186.124 266.1 182.589 263.77 180.022C261.48 177.455 258.281 176.172 254.174 176.172C251.488 176.172 249.139 176.764 247.125 177.949C245.15 179.094 243.63 180.753 242.563 182.925C241.497 185.057 240.944 187.624 240.905 190.626ZM359.882 277.823C350.76 277.823 342.941 276.52 336.425 273.913C329.948 271.346 324.913 267.792 321.319 263.25C317.765 258.748 315.771 253.575 315.336 247.73H346.85C347.166 249.665 347.956 251.225 349.22 252.41C350.484 253.595 352.103 254.444 354.077 254.957C356.091 255.51 358.342 255.787 360.83 255.787C365.056 255.787 368.551 254.76 371.315 252.706C374.119 250.653 375.521 246.94 375.521 241.57V226.168H374.573C373.389 229.248 371.572 231.874 369.123 234.047C366.675 236.179 363.733 237.818 360.297 238.963C356.861 240.069 353.09 240.622 348.983 240.622C342.506 240.622 336.543 239.121 331.093 236.12C325.683 233.118 321.339 228.36 318.061 221.844C314.823 215.328 313.204 206.817 313.204 196.312C313.204 185.334 314.902 176.409 318.298 169.537C321.734 162.666 326.157 157.631 331.567 154.432C337.017 151.233 342.743 149.634 348.746 149.634C353.248 149.634 357.197 150.423 360.593 152.003C363.99 153.543 366.833 155.617 369.123 158.223C371.414 160.79 373.152 163.614 374.336 166.694H375.047V150.818H407.746V241.57C407.746 249.27 405.752 255.806 401.763 261.177C397.814 266.587 392.246 270.714 385.058 273.558C377.871 276.401 369.479 277.823 359.882 277.823ZM361.067 217.401C364.069 217.401 366.636 216.572 368.768 214.913C370.94 213.215 372.599 210.806 373.744 207.686C374.929 204.527 375.521 200.736 375.521 196.312C375.521 191.81 374.929 187.96 373.744 184.761C372.599 181.523 370.94 179.055 368.768 177.357C366.636 175.619 364.069 174.75 361.067 174.75C358.066 174.75 355.499 175.619 353.366 177.357C351.273 179.055 349.654 181.523 348.509 184.761C347.403 187.96 346.85 191.81 346.85 196.312C346.85 200.815 347.403 204.645 348.509 207.804C349.654 210.924 351.273 213.314 353.366 214.972C355.499 216.591 358.066 217.401 361.067 217.401ZM455.417 241.807H419.875L459.919 120.489H504.939L544.984 241.807H509.441L482.903 153.899H481.955L455.417 241.807ZM448.783 193.943H515.602V218.586H448.783V193.943ZM589.841 120.489V241.807H557.142V120.489H589.841ZM631.855 243.228C626.05 243.228 620.916 242.28 616.453 240.385C612.03 238.45 608.555 235.527 606.028 231.618C603.5 227.708 602.236 222.732 602.236 216.69C602.236 211.714 603.085 207.469 604.784 203.954C606.482 200.4 608.851 197.497 611.892 195.246C614.933 192.995 618.467 191.277 622.495 190.093C626.563 188.908 630.947 188.138 635.646 187.782C640.74 187.387 644.828 186.914 647.908 186.361C651.028 185.768 653.279 184.959 654.661 183.932C656.043 182.866 656.734 181.464 656.734 179.726V179.489C656.734 177.12 655.826 175.303 654.01 174.039C652.193 172.776 649.863 172.144 647.02 172.144C643.9 172.144 641.353 172.835 639.378 174.217C637.443 175.56 636.278 177.633 635.883 180.437H605.791C606.185 174.908 607.943 169.814 611.063 165.154C614.222 160.454 618.823 156.703 624.865 153.899C630.907 151.055 638.45 149.634 647.493 149.634C654.01 149.634 659.854 150.404 665.028 151.944C670.201 153.445 674.604 155.557 678.238 158.282C681.871 160.968 684.635 164.127 686.531 167.76C688.466 171.354 689.433 175.264 689.433 179.489V241.807H658.867V229.011H658.156C656.34 232.408 654.128 235.152 651.522 237.245C648.955 239.338 646.013 240.859 642.695 241.807C639.417 242.754 635.804 243.228 631.855 243.228ZM642.518 222.614C645.006 222.614 647.336 222.1 649.508 221.074C651.719 220.047 653.516 218.566 654.898 216.631C656.28 214.696 656.971 212.346 656.971 209.582V201.999C656.103 202.355 655.175 202.69 654.187 203.006C653.239 203.322 652.213 203.618 651.107 203.895C650.041 204.171 648.895 204.428 647.671 204.665C646.486 204.902 645.242 205.119 643.939 205.317C641.412 205.711 639.339 206.363 637.719 207.271C636.14 208.14 634.955 209.226 634.165 210.529C633.415 211.793 633.04 213.215 633.04 214.794C633.04 217.322 633.928 219.257 635.705 220.6C637.482 221.942 639.753 222.614 642.518 222.614ZM705.057 241.807V150.818H736.808V168.116H737.756C739.415 161.718 742.041 157.038 745.635 154.076C749.268 151.115 753.513 149.634 758.371 149.634C759.792 149.634 761.194 149.752 762.576 149.989C763.998 150.187 765.361 150.483 766.664 150.878V178.778C765.045 178.225 763.05 177.811 760.681 177.534C758.311 177.258 756.277 177.12 754.579 177.12C751.381 177.12 748.498 177.85 745.931 179.311C743.403 180.733 741.409 182.747 739.948 185.354C738.487 187.921 737.756 190.942 737.756 194.417V241.807H705.057ZM777.386 241.807V150.818H808.426V168.116H809.374C811.269 162.429 814.508 157.927 819.089 154.61C823.67 151.292 829.119 149.634 835.438 149.634C841.836 149.634 847.345 151.332 851.965 154.728C856.586 158.085 859.37 162.547 860.318 168.116H861.265C862.806 162.547 866.083 158.085 871.099 154.728C876.114 151.332 881.998 149.634 888.751 149.634C897.479 149.634 904.548 152.438 909.958 158.045C915.408 163.653 918.133 171.117 918.133 180.437V241.807H885.434V188.73C885.434 184.741 884.427 181.622 882.413 179.371C880.399 177.08 877.694 175.935 874.298 175.935C870.941 175.935 868.275 177.08 866.301 179.371C864.365 181.622 863.398 184.741 863.398 188.73V241.807H832.121V188.73C832.121 184.741 831.114 181.622 829.1 179.371C827.086 177.08 824.38 175.935 820.984 175.935C818.733 175.935 816.798 176.448 815.179 177.475C813.56 178.502 812.296 179.983 811.388 181.918C810.519 183.813 810.085 186.084 810.085 188.73V241.807H777.386Z" fill="black"/>
</svg>
